<svg width="33" height="33" viewBox="0 0 33 33" fill="none" xmlns="http://www.w3.org/2000/svg"><path d="M15.75 6H16.4016C20.9725 6 23.2579 6 24.1255 6.82093C24.8754 7.53055 25.2077 8.57592 25.0052 9.58832C24.771 10.7595 22.9052 12.0793 19.1734 14.7188L13.0766 19.0312C9.34486 21.6707 7.47898 22.9905 7.24475 24.1617C7.04229 25.1741 7.37462 26.2194 8.12454 26.9291C8.9921 27.75 11.2775 27.75 15.8484 27.75H17.25M10.5 6C10.5 8.48528 8.48528 10.5 6 10.5C3.51472 10.5 1.5 8.48528 1.5 6C1.5 3.51472 3.51472 1.5 6 1.5C8.48528 1.5 10.5 3.51472 10.5 6ZM31.5 27C31.5 29.4853 29.4853 31.5 27 31.5C24.5147 31.5 22.5 29.4853 22.5 27C22.5 24.5147 24.5147 22.5 27 22.5C29.4853 22.5 31.5 24.5147 31.5 27Z" stroke="#F38A04" stroke-width="2.25" stroke-linecap="round" stroke-linejoin="round"></path></svg>