<svg width="31" height="32" viewBox="0 0 31 32" fill="none" xmlns="http://www.w3.org/2000/svg"> <path d="M14.928 20.8572L10.571 16.5002M14.928 20.8572C16.9567 20.0856 18.9028 19.1125 20.7373 17.9525M14.928 20.8572V28.1188C14.928 28.1188 19.3285 27.3201 20.7373 25.2142C22.3058 22.8614 20.7373 17.9525 20.7373 17.9525M10.571 16.5002C11.3438 14.4952 12.317 12.5732 13.4757 10.7635C15.1679 8.0578 17.5242 5.83002 20.3205 4.29207C23.1168 2.75411 26.26 1.95713 29.4513 1.97692C29.4513 5.92726 28.3185 12.8694 20.7373 17.9525M10.571 16.5002H3.30935C3.30935 16.5002 4.10813 12.0997 6.21401 10.6909C8.56678 9.12238 13.4757 10.6909 13.4757 10.6909M4.03552 23.0357C1.85702 24.8656 1.13086 30.2973 1.13086 30.2973C1.13086 30.2973 6.56257 29.5712 8.3925 27.3927C9.42366 26.1727 9.40913 24.2992 8.26179 23.1664C7.69728 22.6276 6.95367 22.3163 6.17367 22.2921C5.39367 22.268 4.63224 22.5328 4.03552 23.0357Z" stroke="#F38A04" stroke-width="2.17849" stroke-linecap="round" stroke-linejoin="round"></path> </svg>