<svg width="37" height="37" viewBox="0 0 37 37" fill="none" xmlns="http://www.w3.org/2000/svg"><path d="M19.4623 22.2453L14.3718 17.1548M22.8736 4.42856V1.8833M29.558 7.07674L31.3578 5.27697M29.558 20.5485L31.3578 22.3483M16.0862 7.07674L14.2865 5.27697M32.2062 13.7612H34.7514M7.80741 33.9003L23.4815 18.2262C24.1535 17.5542 24.4895 17.2182 24.6154 16.8308C24.7261 16.49 24.7261 16.1229 24.6154 15.7821C24.4895 15.3946 24.1535 15.0586 23.4815 14.3867L22.2305 13.1357C21.5585 12.4637 21.2226 12.1277 20.8351 12.0018C20.4943 11.8911 20.1272 11.8911 19.7864 12.0018C19.399 12.1277 19.063 12.4637 18.391 13.1357L2.7169 28.8098C2.04492 29.4817 1.70893 29.8177 1.58305 30.2052C1.47232 30.546 1.47232 30.9131 1.58305 31.2539C1.70893 31.6413 2.04492 31.9773 2.7169 32.6493L3.96791 33.9003C4.63988 34.5723 4.97587 34.9082 5.3633 35.0341C5.7041 35.1449 6.07121 35.1449 6.41201 35.0341C6.79944 34.9082 7.13543 34.5722 7.80741 33.9003Z" stroke="#F38A04" stroke-width="2.54525" stroke-linecap="round" stroke-linejoin="round"></path></svg>